<?xml version="1.0" encoding="UTF-8"?> <svg xmlns="http://www.w3.org/2000/svg" id="Layer_1" data-name="Layer 1" viewBox="0 0 261 299.93"><defs><style> .cls-1 { fill: #fff; } </style></defs><polygon class="cls-1" points="131 0 188.99 28.99 146.26 49.84 130.66 43.22 116.5 49.93 73 28.01 130 0 131 0"></polygon><polygon class="cls-1" points="260.84 107.84 44.01 214.01 84.71 234.76 86 236.99 43.5 256.93 .49 236.01 .99 192.49 217 86.99 215.71 84.76 175.01 64.01 218.49 43.41 260.51 63.99 260.84 107.84"></polygon><path class="cls-1" d="M0,64l44.34-20.78,99.66,48.8c.51,2.34-.32,1.6-1.28,2.22-6.54,4.23-30.93,16.68-38,19-1.04.34-1.96.98-3.14.76l-57.57-27.99v56.5L0,164v-100Z"></path><polygon class="cls-1" points="261 235.5 216.75 256.84 117 207.99 160.43 186.01 218 214 218 157 261 136 261 235.5"></polygon><polygon class="cls-1" points="73 271.01 116.34 250.22 130.5 256.93 146.07 250.47 187.98 271.5 130.5 299.93 73 271.01"></polygon></svg> 