<?xml version="1.0" encoding="UTF-8"?> <svg xmlns="http://www.w3.org/2000/svg" id="Layer_1" version="1.1" viewBox="0 0 102 102"><defs><style> .st0 { fill: #fed0d9; } .st1 { fill: #fe728d; } .st2 { fill: #fe2c55; } .st3 { fill: #fe4a6d; } .st4 { fill: #b4faf8; } .st5 { fill: #fff; } .st6 { fill: #fe7c95; } .st7 { fill: #25f4ee; } .st8 { fill: #d1fcfa; } .st9 { fill: #5bf6f1; } .st10 { fill: #64f6f2; } .st11 { fill: #fea6b7; } .st12 { fill: #7ff9f6; } .st13 { fill: #fe718d; } </style></defs><path class="st5" d="M77.3,20.1c0,0,.2,0,.2.2,0,0,.2.2.3.3,0,0,.2,0,.2,0,.2,0,.3.2.4.4h.2c3.3,3,6.8,5.7,11.2,6.5l.4.3c.2,4.2.3,8.5.1,12.7-.1.2-3.2,0-3.8,0-6.8-.6-13.2-3.1-18.9-6.9v33.4c0,1.4-.2,2.9-.5,4.3-3.3,19.3-23,30.2-41.2,23-1.7-.7-3.7-1.5-5.1-2.7-.1,0-.3-.2-.4-.3h-.2c0,0,0-.2,0-.2-.1,0-.1,0-.2-.2,0,0,0,0,0,0-.1,0-.2,0-.2-.2-.1,0-.2,0-.2-.2-2-1.8-3.6-4.3-4.8-6.7-9.6-19.2,4.4-42.9,26-43.5,0,0,.2,0,.3,0s.2,0,.3.1c.2,4.3.3,8.6,0,12.9h-.5c-15.1-3.9-24.2,16.1-10.6,24.6l.4.5h0c0,0,0,.2,0,.3,0,0,.3,0,.3.2.1,0,.3,0,.4.2,1.7,1.8,2.9,3,5.3,4,4.2,1.8,9,1.2,12.8-1.3,3.2-2.2,5.7-5.9,5.9-9.8.1-1.8.2-3.6.1-5.4-.2-4-.2-8,0-12.1V5.5c4.1,0,8,0,12-.1h.2c0,.1.3.6.3.6,1.1,5.4,4.2,10.4,8.7,13.5.2.2.4.4.6.6h0Z"></path><path class="st2" d="M90.1,27.8c.9.2,2.1.4,3,.4.3,0,1.7,0,1.7.1v16.3c-8.1,0-16.1-2.6-22.7-7.3v34.7c-1.6,25.9-32.5,38.2-51.3,19.6-.1-.1,0-.2,0,0,20.6,12.5,45.4-.8,46.5-24.6v-33.8c6.6,4.6,14.6,7.3,22.7,7.2,0-4.2,0-8.4,0-12.6Z"></path><path class="st7" d="M67.7,5.5c0,0-.2,0-.4,0-3.8,0-7.7,0-11.5,0v48.9c-.5,5.7.3,11.7,0,17.3-.4,5.9-5.2,11.1-10.9,12.2-5.4,1.1-10.3-.9-13.6-5.1-.1-.1,0-.2,0,0,9.1,4.1,18.9-1.8,19.7-11.5V1.4h16.3c.2,0,.1,1.3.1,1.6,0,.8.2,1.7.4,2.5Z"></path><path class="st7" d="M19.5,90.6c-6-4.7-10.2-10.7-11.7-18.2-3.9-19.5,11.6-37,31.3-36,.3,0,2.2.2,2.3.3,0,1.3,0,2.5,0,3.8-25.5.8-38.9,30.9-21.8,50.1.1.1,0,.2,0,0h0Z"></path><path class="st2" d="M41.4,40.4c1.6,0,3.2,0,4.7.3v16.7c-7.6-2.3-15.7,2.3-17.4,10.1-.9,3.9,0,7.6,2.1,10.9h0c-4.9-2.9-7.8-7.6-7.1-13.6,1-8.4,9.6-14.1,17.7-11.5,0-4.3,0-8.6,0-12.8Z"></path><path class="st2" d="M67.7,5.5c1.5,0,2.9,0,4.4,0,0,4.8,1.5,9.4,4.3,13.3.3.4.7.8,1,1.2.1.1,0,.2,0,0-.6-.5-1.3-.9-1.9-1.4-4-3.4-6.7-8.1-7.7-13.2h0Z"></path><path class="st7" d="M78.4,20.9c3.4,2.1,7.6,3.2,11.7,3.2v3.6c-5.2-1-8.1-3.3-11.8-6.8,0-.1,0-.2.2,0h0Z"></path><path class="st9" d="M78.4,20.9h-.2c-.1,0-.2-.2-.4-.3,0,0,0,0,0,0l.5.3Z"></path><path class="st3" d="M20.9,91.6h0c-.1,0-.2-.1-.4-.3h0c.2,0,.3.2.4.3Z"></path><path class="st10" d="M31.3,78.8h0c0,0-.2,0-.3,0,0-.2.3,0,.4,0Z"></path><path class="st6" d="M77.5,20.3c0,0-.1-.1-.2-.2h0c0,0,.1,0,.2.1h0Z"></path><path class="st12" d="M19.8,90.7c.1.1,0,.2,0,0,0,0-.1-.1-.2-.2h0c0,0,.1,0,.2,0Z"></path><path class="st8" d="M20,90.9h0c0,0-.1,0-.2,0h0c0,0,.1,0,.2,0h0Z"></path><path class="st4" d="M78,20.7h0s-.1,0-.2,0c0-.3.2,0,.3,0Z"></path><path class="st0" d="M20.2,91.1h0c-.1,0-.2,0-.2-.2,0,0,.1.1.2.2Z"></path><path class="st11" d="M30.8,78.5s0,0,0,0h0c.1,0,0,0,0,0Z"></path><path class="st1" d="M20.5,91.3h0s0,0,0,0c0,0,.1,0,.2,0Z"></path><path class="st13" d="M20.3,91.2s0,0,0,0h0c0,0,0,0,0,0Z"></path></svg> 