<?xml version="1.0" encoding="UTF-8"?> <svg xmlns="http://www.w3.org/2000/svg" id="Layer_1" version="1.1" viewBox="0 0 102 102"><defs><style> .st0 { fill: #fff; } </style></defs><path class="st0" d="M30.8,2.6c-5.2.2-8.7,1.1-11.8,2.3-3.2,1.2-5.9,2.9-8.6,5.6-2.7,2.7-4.4,5.4-5.6,8.6-1.2,3.1-2,6.6-2.2,11.8-.2,5.2-.3,6.9-.3,20.1,0,13.2,0,14.9.3,20.1.2,5.2,1.1,8.7,2.3,11.8,1.3,3.2,2.9,5.9,5.6,8.6,2.7,2.7,5.4,4.4,8.6,5.6,3.1,1.2,6.6,2,11.8,2.2,5.2.2,6.9.3,20.1.3,13.2,0,14.9,0,20.1-.3s8.7-1.1,11.8-2.3c3.2-1.3,5.9-2.9,8.6-5.6s4.4-5.4,5.6-8.6c1.2-3.1,2-6.6,2.2-11.8.2-5.2.3-6.9.3-20.1,0-13.2,0-14.9-.3-20.1-.2-5.2-1.1-8.7-2.3-11.8-1.3-3.2-2.9-5.9-5.6-8.6s-5.4-4.4-8.6-5.6c-3.1-1.2-6.6-2-11.8-2.2s-6.9-.3-20.1-.3-14.9,0-20.1.3M31.4,90.7c-4.8-.2-7.3-1-9.1-1.7-2.3-.9-3.9-1.9-5.6-3.6s-2.8-3.3-3.7-5.6c-.7-1.7-1.5-4.3-1.7-9-.2-5.1-.3-6.7-.3-19.7s0-14.6.2-19.7c.2-4.7,1-7.3,1.7-9.1.9-2.3,1.9-3.9,3.6-5.6s3.3-2.8,5.6-3.7c1.7-.7,4.3-1.5,9-1.7,5.1-.2,6.7-.3,19.7-.3,13,0,14.6,0,19.7.2,4.7.2,7.3,1,9,1.7,2.3.9,3.9,1.9,5.6,3.6,1.7,1.7,2.8,3.3,3.7,5.6.7,1.7,1.5,4.3,1.7,9,.2,5.1.3,6.7.3,19.7,0,13,0,14.6-.2,19.7-.2,4.8-1,7.3-1.7,9.1-.9,2.3-1.9,3.9-3.6,5.6s-3.3,2.8-5.6,3.7c-1.7.7-4.3,1.5-9,1.7-5.1.2-6.7.3-19.7.3s-14.6,0-19.7-.2M71.1,24.9c0,3.2,2.6,5.8,5.9,5.8s5.8-2.6,5.8-5.9c0-3.2-2.6-5.8-5.9-5.8,0,0,0,0,0,0-3.2,0-5.8,2.6-5.8,5.9M26,51c0,13.8,11.3,25,25.1,25,13.8,0,25-11.3,25-25.1,0-13.8-11.3-25-25.1-25s-25,11.3-25,25.1M34.8,51c0-9,7.2-16.3,16.2-16.3,9,0,16.3,7.2,16.3,16.2,0,9-7.2,16.3-16.2,16.3-9,0-16.3-7.2-16.3-16.2h0"></path></svg> 