<?xml version="1.0" encoding="UTF-8"?> <svg xmlns="http://www.w3.org/2000/svg" width="102" height="102" viewBox="0 0 102 102" fill="none"><g clip-path="url(#clip0_7_180)"><path fill-rule="evenodd" clip-rule="evenodd" d="M102 51C102 79.1665 79.1665 102 51 102C22.8335 102 0 79.1665 0 51C0 22.8335 22.8335 0 51 0C79.1665 0 102 22.8335 102 51ZM52.8276 37.6504C47.8671 39.7137 37.9531 43.9841 23.0855 50.4616C20.6713 51.4217 19.4066 52.3609 19.2915 53.2793C19.0969 54.8314 21.0405 55.4425 23.6872 56.2748C24.0473 56.388 24.4203 56.5053 24.8027 56.6296C27.4067 57.476 30.9095 58.4663 32.7305 58.5056C34.3823 58.5413 36.2258 57.8603 38.2612 56.4627C52.1524 47.0858 59.3231 42.3462 59.7733 42.244C60.0909 42.1719 60.531 42.0813 60.8293 42.3463C61.1275 42.6114 61.0981 43.1134 61.0666 43.248C60.874 44.0688 53.2445 51.1619 49.2963 54.8326C48.0654 55.9769 47.1923 56.7886 47.0138 56.974C46.614 57.3892 46.2065 57.782 45.8149 58.1596C43.3958 60.4916 41.5816 62.2405 45.9154 65.0964C47.998 66.4688 49.6645 67.6037 51.3271 68.7359C53.1428 69.9724 54.9537 71.2056 57.2969 72.7416C57.8938 73.1329 58.464 73.5394 59.0193 73.9352C61.1323 75.4416 63.0307 76.795 65.376 76.5792C66.7388 76.4538 68.1465 75.1723 68.8614 71.3505C70.5509 62.3184 73.8719 42.7484 74.6394 34.6841C74.7067 33.9776 74.6221 33.0734 74.5541 32.6764C74.4862 32.2795 74.3443 31.714 73.8283 31.2953C73.2173 30.7995 72.2739 30.6949 71.8521 30.7024C69.9338 30.7361 66.9909 31.7595 52.8276 37.6504Z" fill="white"></path></g><defs><clipPath id="clip0_7_180"><rect width="102" height="102" fill="white"></rect></clipPath></defs></svg> 